<svg width="16" height="19" viewBox="0 0 16 19" fill="none" xmlns="http://www.w3.org/2000/svg">
<path d="M1.45455 6.57692C1.45461 5.76979 2.10581 5.11538 2.90909 5.11538H9.45455C10.2578 5.11539 10.909 5.76979 10.9091 6.57692V16.0769C10.9091 16.8841 10.2579 17.5385 9.45455 17.5385H2.90909C2.10577 17.5385 1.45455 16.8841 1.45455 16.0769V6.57692ZM16 10.5962V5.60256C16 2.50838 13.5036 -2.19575e-08 10.4242 0H5.45455C5.05292 4.64564e-06 4.72733 0.327232 4.72727 0.730769C4.72728 1.13436 5.05289 1.46154 5.45455 1.46154H10.4242C12.7003 1.46154 14.5454 3.31556 14.5455 5.60256V10.5962C14.5455 10.9997 14.8711 11.3269 15.2727 11.3269C15.6744 11.3269 16 10.9997 16 10.5962ZM0 16.0769C0 17.6913 1.30244 19 2.90909 19H9.45455C11.0612 19 12.3636 17.6913 12.3636 16.0769V6.57692C12.3636 4.9626 11.0612 3.65385 9.45455 3.65385H2.90909C1.30248 3.65385 6.00815e-05 4.9626 0 6.57692V16.0769Z" fill="black"/>
</svg>
