<svg width="24" height="24" viewBox="0 0 24 24" fill="none" xmlns="http://www.w3.org/2000/svg">
<path d="M19 10.75C19 6.19365 15.3064 2.5 10.75 2.5C6.19365 2.5 2.5 6.19365 2.5 10.75C2.5 15.3064 6.19365 19 10.75 19C15.3064 19 19 15.3064 19 10.75ZM20 10.75C20 13.1244 19.1044 15.2889 17.6338 16.9268L22.3535 21.6465C22.5488 21.8417 22.5488 22.1583 22.3535 22.3535C22.1583 22.5488 21.8417 22.5488 21.6465 22.3535L16.9268 17.6338C15.2889 19.1044 13.1244 20 10.75 20C5.64137 20 1.5 15.8586 1.5 10.75C1.5 5.64137 5.64137 1.5 10.75 1.5C15.8586 1.5 20 5.64137 20 10.75Z" fill="#A9B4C3"/>
</svg>
