<svg width="24" height="19" viewBox="0 0 24 19" fill="none" xmlns="http://www.w3.org/2000/svg">
<path d="M1.64963 8.17947C8.0933 5.49837 12.3891 3.73066 14.537 2.87666C20.6767 0.438013 21.951 0.0144739 22.7832 0.000125024C22.9662 -0.00267877 23.3737 0.0405324 23.6396 0.245869C23.8606 0.419045 23.9228 0.653245 23.9538 0.81768C23.9815 0.98195 24.0194 1.35634 23.9884 1.64859C23.6569 4.98676 22.2169 13.0874 21.4848 16.8264C21.1775 18.4084 20.5662 18.9388 19.9757 18.9906C18.6912 19.1034 17.7174 18.1805 16.4742 17.4023C14.5301 16.1841 13.4319 15.4261 11.543 14.2377C9.36062 12.8641 10.7764 12.1091 12.0196 10.8754C12.3442 10.5525 18.0005 5.63922 18.1076 5.19358C18.1214 5.13784 18.1352 4.93003 18.004 4.82051C17.8762 4.71067 17.6863 4.74828 17.5482 4.77796C17.3513 4.82019 14.2469 6.78219 8.22452 10.6636C7.34396 11.2422 6.54627 11.5242 5.828 11.5094C5.04067 11.4932 3.52127 11.0832 2.39207 10.7329C1.01079 10.3031 -0.0907762 10.0758 0.00591329 9.34585C0.054258 8.96585 0.603316 8.57695 1.64963 8.17947Z" fill="#A9B4C3"/>
</svg>
