<svg width="20" height="20" viewBox="0 0 20 20" fill="none" xmlns="http://www.w3.org/2000/svg">
<path d="M5.85913 6.77077C6.6073 8.32905 7.6272 9.78952 8.91884 11.0812C10.2105 12.3728 11.671 13.3927 13.2292 14.1409C13.3633 14.2052 13.4303 14.2374 13.5151 14.2621C13.8165 14.35 14.1865 14.2869 14.4417 14.1041C14.5136 14.0527 14.575 13.9912 14.6979 13.8684C15.0737 13.4926 15.2616 13.3047 15.4506 13.1818C16.1631 12.7185 17.0818 12.7185 17.7943 13.1818C17.9833 13.3047 18.1712 13.4926 18.547 13.8684L18.7565 14.0778C19.3278 14.6491 19.6134 14.9348 19.7686 15.2415C20.0771 15.8516 20.0771 16.5721 19.7686 17.1822C19.6134 17.489 19.3278 17.7746 18.7565 18.3459L18.587 18.5154C18.0177 19.0847 17.7331 19.3694 17.346 19.5868C16.9166 19.828 16.2496 20.0015 15.757 20C15.3131 19.9987 15.0097 19.9126 14.403 19.7403C11.1422 18.8148 8.06532 17.0686 5.49836 14.5016C2.93139 11.9347 1.18516 8.85777 0.259653 5.59701C0.0874378 4.99026 0.00132944 4.68688 9.22161e-06 4.24298C-0.0014567 3.75042 0.172 3.08342 0.413242 2.65397C0.630648 2.26695 0.915309 1.98229 1.48463 1.41297L1.65408 1.24352C2.22535 0.672242 2.51099 0.386604 2.81776 0.23144C3.42787 -0.0771467 4.14837 -0.0771468 4.75847 0.23144C5.06524 0.386604 5.35088 0.672241 5.92216 1.24352L6.13163 1.45299C6.50744 1.8288 6.69535 2.01671 6.8182 2.20566C7.2815 2.91824 7.2815 3.83687 6.8182 4.54945C6.69535 4.7384 6.50744 4.92631 6.13163 5.30212C6.00875 5.425 5.94731 5.48644 5.89588 5.55826C5.71313 5.81348 5.65003 6.18355 5.73788 6.48491C5.7626 6.56972 5.79478 6.63674 5.85913 6.77077Z" fill="#A9B4C3"/>
<path d="M5.85913 6.77077C6.6073 8.32905 7.6272 9.78952 8.91884 11.0812C10.2105 12.3728 11.671 13.3927 13.2292 14.1409C13.3633 14.2052 13.4303 14.2374 13.5151 14.2621C13.8165 14.35 14.1865 14.2869 14.4417 14.1041C14.5136 14.0527 14.575 13.9912 14.6979 13.8684C15.0737 13.4926 15.2616 13.3047 15.4506 13.1818C16.1631 12.7185 17.0818 12.7185 17.7943 13.1818C17.9833 13.3047 18.1712 13.4926 18.547 13.8684L18.7565 14.0778C19.3278 14.6491 19.6134 14.9348 19.7686 15.2415C20.0771 15.8516 20.0771 16.5721 19.7686 17.1822C19.6134 17.489 19.3278 17.7746 18.7565 18.3459L18.587 18.5154C18.0177 19.0847 17.7331 19.3694 17.346 19.5868C16.9166 19.828 16.2496 20.0015 15.757 20C15.3131 19.9987 15.0097 19.9126 14.403 19.7403C11.1422 18.8148 8.06532 17.0686 5.49836 14.5016C2.93139 11.9347 1.18516 8.85777 0.259653 5.59701C0.0874378 4.99026 0.00132944 4.68688 9.22161e-06 4.24298C-0.0014567 3.75042 0.172 3.08342 0.413242 2.65397C0.630648 2.26695 0.915309 1.98229 1.48463 1.41297L1.65408 1.24352C2.22535 0.672242 2.51099 0.386604 2.81776 0.23144C3.42787 -0.0771467 4.14837 -0.0771468 4.75847 0.23144C5.06524 0.386604 5.35088 0.672241 5.92216 1.24352L6.13163 1.45299C6.50744 1.8288 6.69535 2.01671 6.8182 2.20566C7.2815 2.91824 7.2815 3.83687 6.8182 4.54945C6.69535 4.7384 6.50744 4.92631 6.13163 5.30212C6.00875 5.425 5.94731 5.48644 5.89588 5.55826C5.71313 5.81348 5.65003 6.18355 5.73788 6.48491C5.7626 6.56972 5.79478 6.63674 5.85913 6.77077Z" fill="url(#paint0_linear_344_1866)"/>
<defs>
<linearGradient id="paint0_linear_344_1866" x1="17.8539" y1="-16.2264" x2="-5.98819" y2="-11.3636" gradientUnits="userSpaceOnUse">
<stop stop-color="#00F5FF"/>
<stop offset="1" stop-color="#0086FF"/>
</linearGradient>
</defs>
</svg>
