<svg aria-hidden="true" xmlns="http://www.w3.org/2000/svg" xmlns:xlink="http://www.w3.org/1999/xlink"><symbol viewBox="0 0 20 20" fill="none" id="icon-close" xmlns="http://www.w3.org/2000/svg">
<path d="M18.2929 0.292893C18.6834 -0.0976306 19.3164 -0.0976306 19.707 0.292893C20.0975 0.683417 20.0975 1.31643 19.707 1.70696L11.414 9.99992L19.707 18.2929C20.0975 18.6834 20.0975 19.3164 19.707 19.707C19.3164 20.0975 18.6834 20.0975 18.2929 19.707L9.99992 11.414L1.70696 19.707C1.31643 20.0975 0.683417 20.0975 0.292893 19.707C-0.0976306 19.3164 -0.0976306 18.6834 0.292893 18.2929L8.58586 9.99992L0.292893 1.70696C-0.0976311 1.31643 -0.0976311 0.683417 0.292893 0.292893C0.683417 -0.0976311 1.31643 -0.0976311 1.70696 0.292893L9.99992 8.58586L18.2929 0.292893Z" fill="currentColor"/>
</symbol><symbol viewBox="0 0 24 24" fill="none" id="icon-max" xmlns="http://www.w3.org/2000/svg">
<path fill-rule="evenodd" clip-rule="evenodd" d="M12.2578 23.9315C9.90255 23.9315 8.808 23.5862 6.90542 22.2049C5.70199 23.7588 1.89111 24.9733 1.72492 22.8955C1.72492 21.3358 1.38108 20.0178 0.9914 18.5789C0.527219 16.8062 0 14.832 0 11.9715C0 5.13969 5.58164 0 12.1948 0C18.8137 0 23.9999 5.39294 23.9999 12.0348C24.0221 18.574 18.7687 23.8966 12.2578 23.9315ZM12.3553 5.90518C9.13464 5.73827 6.62462 7.97717 6.06875 11.488C5.6103 14.3946 6.42405 17.9342 7.11746 18.1184C7.44983 18.199 8.28651 17.5198 8.808 16.9961C9.6703 17.5944 10.6745 17.9537 11.7192 18.0378C15.0563 18.1991 17.9077 15.6475 18.1318 12.2996C18.2622 8.94458 15.6928 6.10293 12.3553 5.91094L12.3553 5.90518Z" fill="currentColor"/>
</symbol><symbol viewBox="0 0 22 22" fill="none" id="icon-next" xmlns="http://www.w3.org/2000/svg">
<path d="M10.1028 0.292895C10.4861 -0.0976318 11.1075 -0.0976316 11.4908 0.292895L22 11L11.4908 21.7071C11.1075 22.0976 10.4861 22.0976 10.1028 21.7071C9.71951 21.3166 9.71951 20.6836 10.1028 20.293L18.2426 12H0.981527C0.439444 12 0 11.5523 0 11C0 10.4477 0.439444 9.99999 0.981527 9.99999H18.2426L10.1028 1.70697C9.71951 1.31644 9.71951 0.683422 10.1028 0.292895Z" fill="currentColor"/>
</symbol><symbol viewBox="0 0 28 28" fill="none" id="icon-play" xmlns="http://www.w3.org/2000/svg">
<path d="M25 12.2679C26.3333 13.0377 26.3333 14.9623 25 15.7321L10 24.3923C8.66666 25.1621 7 24.1999 7 22.6603L7 5.33975C7 3.80014 8.66667 2.83789 10 3.60769L25 12.2679Z" fill="currentColor"/>
</symbol><symbol viewBox="0 0 22 22" fill="none" id="icon-prev" xmlns="http://www.w3.org/2000/svg">
<path d="M11.8972 0.292895C11.5139 -0.0976318 10.8925 -0.0976315 10.5092 0.292895L0 11L10.5092 21.7071C10.8925 22.0976 11.5139 22.0976 11.8972 21.7071C12.2805 21.3166 12.2805 20.6836 11.8972 20.293L3.75741 12H21.0185C21.5606 12 22 11.5523 22 11C22 10.4477 21.5606 9.99999 21.0185 9.99999H3.75741L11.8972 1.70697C12.2805 1.31644 12.2805 0.683422 11.8972 0.292895Z" fill="currentColor"/>
</symbol><symbol viewBox="0 0 24 24" fill="none" id="icon-search" xmlns="http://www.w3.org/2000/svg">
<path d="M19 10.75C19 6.19365 15.3064 2.5 10.75 2.5C6.19365 2.5 2.5 6.19365 2.5 10.75C2.5 15.3064 6.19365 19 10.75 19C15.3064 19 19 15.3064 19 10.75ZM20 10.75C20 13.1244 19.1044 15.2889 17.6338 16.9268L22.3535 21.6465C22.5488 21.8417 22.5488 22.1583 22.3535 22.3535C22.1583 22.5488 21.8417 22.5488 21.6465 22.3535L16.9268 17.6338C15.2889 19.1044 13.1244 20 10.75 20C5.64137 20 1.5 15.8586 1.5 10.75C1.5 5.64137 5.64137 1.5 10.75 1.5C15.8586 1.5 20 5.64137 20 10.75Z" fill="currentColor"/>
</symbol><symbol viewBox="0 0 24 19" fill="none" id="icon-tg" xmlns="http://www.w3.org/2000/svg">
<path d="M1.64963 8.17947C8.0933 5.49837 12.3891 3.73066 14.537 2.87666C20.6767 0.438013 21.951 0.0144739 22.7832 0.000125024C22.9662 -0.00267877 23.3737 0.0405324 23.6396 0.245869C23.8606 0.419045 23.9228 0.653245 23.9538 0.81768C23.9815 0.98195 24.0194 1.35634 23.9884 1.64859C23.6569 4.98676 22.2169 13.0874 21.4848 16.8264C21.1775 18.4084 20.5662 18.9388 19.9757 18.9906C18.6912 19.1034 17.7174 18.1805 16.4742 17.4023C14.5301 16.1841 13.4319 15.4261 11.543 14.2377C9.36062 12.8641 10.7764 12.1091 12.0196 10.8754C12.3442 10.5525 18.0005 5.63922 18.1076 5.19358C18.1214 5.13784 18.1352 4.93003 18.004 4.82051C17.8762 4.71067 17.6863 4.74828 17.5482 4.77796C17.3513 4.82019 14.2469 6.78219 8.22452 10.6636C7.34396 11.2422 6.54627 11.5242 5.828 11.5094C5.04067 11.4932 3.52127 11.0832 2.39207 10.7329C1.01079 10.3031 -0.0907762 10.0758 0.00591329 9.34585C0.054258 8.96585 0.603316 8.57695 1.64963 8.17947Z" fill="currentColor"/>
</symbol><symbol viewBox="0 0 9 8" fill="none" id="icon-triangle" xmlns="http://www.w3.org/2000/svg">
<path d="M5.33162 7.5C4.94672 8.16667 3.98447 8.16667 3.59957 7.5L0.135466 1.5C-0.249434 0.833333 0.231692 -6.72981e-08 1.00149 0L7.9297 6.05683e-07C8.6995 6.72981e-07 9.18062 0.833334 8.79572 1.5L5.33162 7.5Z" fill="currentColor"/>
</symbol></svg>