<svg aria-hidden="true" xmlns="http://www.w3.org/2000/svg" xmlns:xlink="http://www.w3.org/1999/xlink"><symbol viewBox="0 0 24 24" fill="none" id="icon-max" xmlns="http://www.w3.org/2000/svg">
<path fill-rule="evenodd" clip-rule="evenodd" d="M12.2578 23.9315C9.90255 23.9315 8.808 23.5862 6.90542 22.2049C5.70199 23.7588 1.89111 24.9733 1.72492 22.8955C1.72492 21.3358 1.38108 20.0178 0.9914 18.5789C0.527219 16.8062 0 14.832 0 11.9715C0 5.13969 5.58164 0 12.1948 0C18.8137 0 23.9999 5.39294 23.9999 12.0348C24.0221 18.574 18.7687 23.8966 12.2578 23.9315ZM12.3553 5.90518C9.13464 5.73827 6.62462 7.97717 6.06875 11.488C5.6103 14.3946 6.42405 17.9342 7.11746 18.1184C7.44983 18.199 8.28651 17.5198 8.808 16.9961C9.6703 17.5944 10.6745 17.9537 11.7192 18.0378C15.0563 18.1991 17.9077 15.6475 18.1318 12.2996C18.2622 8.94458 15.6928 6.10293 12.3553 5.91094L12.3553 5.90518Z" fill="currentColor"/>
</symbol><symbol viewBox="0 0 24 24" fill="none" id="icon-search" xmlns="http://www.w3.org/2000/svg">
<path d="M19 10.75C19 6.19365 15.3064 2.5 10.75 2.5C6.19365 2.5 2.5 6.19365 2.5 10.75C2.5 15.3064 6.19365 19 10.75 19C15.3064 19 19 15.3064 19 10.75ZM20 10.75C20 13.1244 19.1044 15.2889 17.6338 16.9268L22.3535 21.6465C22.5488 21.8417 22.5488 22.1583 22.3535 22.3535C22.1583 22.5488 21.8417 22.5488 21.6465 22.3535L16.9268 17.6338C15.2889 19.1044 13.1244 20 10.75 20C5.64137 20 1.5 15.8586 1.5 10.75C1.5 5.64137 5.64137 1.5 10.75 1.5C15.8586 1.5 20 5.64137 20 10.75Z" fill="currentColor"/>
</symbol><symbol viewBox="0 0 24 19" fill="none" id="icon-tg" xmlns="http://www.w3.org/2000/svg">
<path d="M1.64963 8.17947C8.0933 5.49837 12.3891 3.73066 14.537 2.87666C20.6767 0.438013 21.951 0.0144739 22.7832 0.000125024C22.9662 -0.00267877 23.3737 0.0405324 23.6396 0.245869C23.8606 0.419045 23.9228 0.653245 23.9538 0.81768C23.9815 0.98195 24.0194 1.35634 23.9884 1.64859C23.6569 4.98676 22.2169 13.0874 21.4848 16.8264C21.1775 18.4084 20.5662 18.9388 19.9757 18.9906C18.6912 19.1034 17.7174 18.1805 16.4742 17.4023C14.5301 16.1841 13.4319 15.4261 11.543 14.2377C9.36062 12.8641 10.7764 12.1091 12.0196 10.8754C12.3442 10.5525 18.0005 5.63922 18.1076 5.19358C18.1214 5.13784 18.1352 4.93003 18.004 4.82051C17.8762 4.71067 17.6863 4.74828 17.5482 4.77796C17.3513 4.82019 14.2469 6.78219 8.22452 10.6636C7.34396 11.2422 6.54627 11.5242 5.828 11.5094C5.04067 11.4932 3.52127 11.0832 2.39207 10.7329C1.01079 10.3031 -0.0907762 10.0758 0.00591329 9.34585C0.054258 8.96585 0.603316 8.57695 1.64963 8.17947Z" fill="currentColor"/>
</symbol></svg>