<svg width="116" height="112" viewBox="0 0 116 112" fill="none" xmlns="http://www.w3.org/2000/svg">
<path d="M2.28027 50.3877C2.2803 49.8354 2.72801 49.3877 3.28027 49.3877C3.83241 49.3878 4.28024 49.8355 4.28027 50.3877C4.28027 56.0198 8.92139 60.6121 14.6797 60.6123H26.0801C31.8385 60.6122 36.4805 56.0199 36.4805 50.3877C36.4805 49.8354 36.9282 49.3877 37.4805 49.3877C38.0325 49.3879 38.4804 49.8356 38.4805 50.3877C38.4805 57.1536 32.9137 62.6122 26.0801 62.6123H14.6797C12.5697 62.6122 10.5816 62.0895 8.83984 61.1709V110H30.6396C33.6482 110 36.8214 108.136 39.958 104.808C43.0724 101.503 46.0139 96.8962 48.5537 91.7558C53.4272 81.8922 56.709 70.2962 56.9795 62.6123H51.1602C44.3265 62.6123 38.7598 57.1536 38.7598 50.3877C38.7598 49.8355 39.2076 49.3878 39.7598 49.3877C40.312 49.3877 40.7597 49.8354 40.7598 50.3877C40.7598 56.0199 45.4017 60.6123 51.1602 60.6123H62.5596C68.318 60.6123 72.96 56.0199 72.96 50.3877C72.96 49.8354 73.4077 49.3877 73.96 49.3877C74.5122 49.3877 74.9599 49.8354 74.96 50.3877C74.96 57.1536 69.3932 62.6123 62.5596 62.6123H59.0205C59.291 70.2962 62.5728 81.8922 67.4463 91.7558C69.9861 96.8962 72.9276 101.503 76.042 104.808C79.1786 108.136 82.3518 110 85.3604 110H107.16V59.6211C104.982 61.4835 102.143 62.6123 99.04 62.6123H87.6396C80.8062 62.6121 75.2402 57.1535 75.2402 50.3877C75.2403 49.8354 75.688 49.3877 76.2402 49.3877C76.7924 49.3878 77.2402 49.8355 77.2402 50.3877C77.2402 56.0198 81.8814 60.6121 87.6396 60.6123H99.04C104.798 60.6123 109.44 56.0199 109.44 50.3877C109.44 49.8354 109.888 49.3877 110.44 49.3877C110.992 49.3879 111.44 49.8355 111.44 50.3877C111.44 53.4566 110.292 56.2538 108.402 58.3974C108.837 58.5058 109.16 58.8986 109.16 59.3672V110H115C115.552 110 116 110.448 116 111C116 111.552 115.552 112 115 112H85.3604C81.5291 112 77.8617 109.655 74.5859 106.179C71.2878 102.679 68.2435 97.8839 65.6533 92.6416C62.1272 85.505 59.3869 77.4196 58 70.4414C56.6131 77.4196 53.8728 85.505 50.3467 92.6416C47.7565 97.8839 44.7122 102.679 41.4141 106.179C38.1383 109.655 34.4709 112 30.6396 112H1C0.447718 112 4.12321e-06 111.552 0 111C0 110.448 0.447715 110 1 110H6.83984V59.8564C4.05951 57.6171 2.28027 54.2119 2.28027 50.3877ZM57.3623 0.22942C57.7379 -0.0812113 58.283 -0.0758372 58.6523 0.242115L113.373 47.3847C113.69 47.6576 113.803 48.0993 113.657 48.4912C113.512 48.8829 113.138 49.1425 112.72 49.1425H1C0.578324 49.1425 0.202411 48.8781 0.0595703 48.4814C-0.0832337 48.0847 0.0374373 47.6408 0.362305 47.372L57.3623 0.22942ZM3.77832 47.1425H110.027L57.9863 2.30852L3.77832 47.1425Z" fill="#0485FA"/>
<path d="M2.28027 50.3877C2.2803 49.8354 2.72801 49.3877 3.28027 49.3877C3.83241 49.3878 4.28024 49.8355 4.28027 50.3877C4.28027 56.0198 8.92139 60.6121 14.6797 60.6123H26.0801C31.8385 60.6122 36.4805 56.0199 36.4805 50.3877C36.4805 49.8354 36.9282 49.3877 37.4805 49.3877C38.0325 49.3879 38.4804 49.8356 38.4805 50.3877C38.4805 57.1536 32.9137 62.6122 26.0801 62.6123H14.6797C12.5697 62.6122 10.5816 62.0895 8.83984 61.1709V110H30.6396C33.6482 110 36.8214 108.136 39.958 104.808C43.0724 101.503 46.0139 96.8962 48.5537 91.7558C53.4272 81.8922 56.709 70.2962 56.9795 62.6123H51.1602C44.3265 62.6123 38.7598 57.1536 38.7598 50.3877C38.7598 49.8355 39.2076 49.3878 39.7598 49.3877C40.312 49.3877 40.7597 49.8354 40.7598 50.3877C40.7598 56.0199 45.4017 60.6123 51.1602 60.6123H62.5596C68.318 60.6123 72.96 56.0199 72.96 50.3877C72.96 49.8354 73.4077 49.3877 73.96 49.3877C74.5122 49.3877 74.9599 49.8354 74.96 50.3877C74.96 57.1536 69.3932 62.6123 62.5596 62.6123H59.0205C59.291 70.2962 62.5728 81.8922 67.4463 91.7558C69.9861 96.8962 72.9276 101.503 76.042 104.808C79.1786 108.136 82.3518 110 85.3604 110H107.16V59.6211C104.982 61.4835 102.143 62.6123 99.04 62.6123H87.6396C80.8062 62.6121 75.2402 57.1535 75.2402 50.3877C75.2403 49.8354 75.688 49.3877 76.2402 49.3877C76.7924 49.3878 77.2402 49.8355 77.2402 50.3877C77.2402 56.0198 81.8814 60.6121 87.6396 60.6123H99.04C104.798 60.6123 109.44 56.0199 109.44 50.3877C109.44 49.8354 109.888 49.3877 110.44 49.3877C110.992 49.3879 111.44 49.8355 111.44 50.3877C111.44 53.4566 110.292 56.2538 108.402 58.3974C108.837 58.5058 109.16 58.8986 109.16 59.3672V110H115C115.552 110 116 110.448 116 111C116 111.552 115.552 112 115 112H85.3604C81.5291 112 77.8617 109.655 74.5859 106.179C71.2878 102.679 68.2435 97.8839 65.6533 92.6416C62.1272 85.505 59.3869 77.4196 58 70.4414C56.6131 77.4196 53.8728 85.505 50.3467 92.6416C47.7565 97.8839 44.7122 102.679 41.4141 106.179C38.1383 109.655 34.4709 112 30.6396 112H1C0.447718 112 4.12321e-06 111.552 0 111C0 110.448 0.447715 110 1 110H6.83984V59.8564C4.05951 57.6171 2.28027 54.2119 2.28027 50.3877ZM57.3623 0.22942C57.7379 -0.0812113 58.283 -0.0758372 58.6523 0.242115L113.373 47.3847C113.69 47.6576 113.803 48.0993 113.657 48.4912C113.512 48.8829 113.138 49.1425 112.72 49.1425H1C0.578324 49.1425 0.202411 48.8781 0.0595703 48.4814C-0.0832337 48.0847 0.0374373 47.6408 0.362305 47.372L57.3623 0.22942ZM3.77832 47.1425H110.027L57.9863 2.30852L3.77832 47.1425Z" fill="url(#paint0_linear_2013_1004)"/>
<defs>
<linearGradient id="paint0_linear_2013_1004" x1="102.632" y1="-88.2216" x2="-32.4915" y2="-59.7414" gradientUnits="userSpaceOnUse">
<stop stop-color="#00F5FF"/>
<stop offset="1" stop-color="#0086FF"/>
</linearGradient>
</defs>
</svg>
