<svg width="36" height="28" viewBox="0 0 36 28" fill="none" xmlns="http://www.w3.org/2000/svg">
<path d="M27.9311 15.681C27.9312 14.8991 28.1679 14.1342 28.6112 13.484C29.0545 12.8339 29.6853 12.3269 30.4223 12.0277C31.1592 11.7287 31.9701 11.6506 32.7523 11.803C33.5347 11.9555 34.2539 12.332 34.8181 12.8848C35.3823 13.4378 35.7668 14.1435 35.9225 14.9107C36.078 15.6774 35.9985 16.4722 35.6934 17.1945C35.388 17.917 34.8704 18.535 34.2071 18.9694C33.7173 19.2902 33.1634 19.4983 32.5863 19.5864V28H3.41374V19.5864C2.83662 19.4983 2.28271 19.2902 1.79291 18.9694C1.12956 18.535 0.612016 17.917 0.306641 17.1945C0.00151257 16.4722 -0.0779888 15.6774 0.0775187 14.9107C0.233222 14.1435 0.617649 13.4378 1.18191 12.8848C1.74613 12.332 2.46526 11.9555 3.24765 11.803C4.02987 11.6506 4.84078 11.7287 5.57767 12.0277C6.3147 12.3269 6.94548 12.8339 7.38883 13.484C7.8321 14.1342 8.06882 14.8991 8.06893 15.681V18.419H27.9311V15.681ZM25.3695 15.681C25.3696 13.9733 26.06 12.3351 27.2886 11.1242C28.3548 10.0733 29.7513 9.41765 31.2406 9.25645C30.8077 6.28192 29.1245 4.3304 26.8255 3.08509C24.3384 1.73806 21.1206 1.21739 17.9988 1.21739C14.8771 1.21744 11.6603 1.73812 9.17332 3.08509C6.8741 4.33041 5.18991 6.28173 4.75695 9.25645C6.2466 9.4175 7.64383 10.073 8.71023 11.1242C9.9387 12.3351 10.6279 13.9733 10.6281 15.681V15.9093H25.3695V15.681ZM26.6109 17.1267H9.38669V15.681C9.38656 14.2952 8.82729 12.9654 7.83011 11.9825C6.83291 10.9996 5.47916 10.4439 4.06474 10.4358L3.39434 10.4322L3.44889 9.77717C3.76475 5.99544 5.79983 3.52079 8.57324 2.01868C11.3148 0.533925 14.7667 4.52716e-05 17.9988 0C21.2311 0 24.6839 0.533757 27.4255 2.01868C30.1989 3.52079 32.2328 5.99546 32.5487 9.77717L32.6044 10.4322L31.934 10.4358C30.5196 10.4438 29.166 10.9997 28.1687 11.9825C27.1715 12.9654 26.611 14.2952 26.6109 15.681V17.1267ZM29.1725 19.6364H6.82754V15.681C6.82743 15.1402 6.66373 14.6115 6.35718 14.1617C6.05039 13.7117 5.61393 13.3608 5.10367 13.1535C4.59324 12.9463 4.03079 12.8922 3.4889 12.9978C2.94726 13.1035 2.45006 13.3641 2.05961 13.7468C1.66912 14.1295 1.40245 14.6166 1.29466 15.1472C1.18695 15.6779 1.24229 16.2285 1.45347 16.7284C1.66482 17.2285 2.02337 17.6569 2.4827 17.9577C2.94195 18.2583 3.48207 18.419 4.03443 18.419H4.65512V26.7826H31.3449V18.419H31.9656C32.5179 18.419 33.058 18.2583 33.5173 17.9577C33.9766 17.6569 34.3352 17.2285 34.5465 16.7284C34.7577 16.2285 34.813 15.6779 34.7053 15.1472C34.5975 14.6166 34.3309 14.1295 33.9404 13.7468C33.5499 13.3641 33.0527 13.1035 32.5111 12.9978C31.9692 12.8922 31.4068 12.9463 30.8963 13.1535C30.3861 13.3608 29.9496 13.7117 29.6428 14.1617C29.3363 14.6115 29.1726 15.1402 29.1725 15.681V19.6364Z" fill="url(#paint0_linear_2132_1006)"/>
<defs>
<linearGradient id="paint0_linear_2132_1006" x1="32.4488" y1="-21.1206" x2="-0.0564098" y2="-14.3602" gradientUnits="userSpaceOnUse">
<stop stop-color="#00F5FF"/>
<stop offset="1" stop-color="#0086FF"/>
</linearGradient>
</defs>
</svg>
