<svg width="63" height="62" viewBox="0 0 63 62" fill="none" xmlns="http://www.w3.org/2000/svg">
<path d="M27.558 4.0166C27.558 1.80119 29.3531 0.000177722 31.5761 0H31.8925C33.9269 0 35.8779 0.808895 37.3153 2.24707C38.7524 3.68509 39.5595 5.63498 39.5595 7.66699V23.333H54.4272C55.7344 23.3331 57.0198 23.668 58.1612 24.3047C59.3025 24.9413 60.2624 25.8585 60.9491 26.9697C61.6357 28.081 62.0264 29.3496 62.0853 30.6543C62.1405 31.8774 61.9018 33.0948 61.3908 34.2051L61.285 34.4258L49.6254 57.7588C48.989 59.033 48.0095 60.1052 46.7974 60.8545C45.6611 61.5569 44.3624 61.9493 43.0301 61.9951L42.7636 62H29.3809C28.7557 62 28.1302 61.9232 27.5198 61.7695V61.7686L15.1127 58.667H8.57225C6.53797 58.667 4.58777 57.858 3.15041 56.4199C1.71314 54.9819 0.90625 53.0322 0.90625 51V31C0.90625 28.9678 1.71314 27.0181 3.15041 25.5801C4.58777 24.142 6.53797 23.333 8.57225 23.333H16.9171L25.7007 10.1504V10.1494C26.9132 8.33435 27.558 6.20025 27.558 4.0166ZM2.91238 51C2.91238 52.504 3.50992 53.9454 4.57174 55.0078C5.63345 56.0701 7.07234 56.667 8.57225 56.667H14.2321V27.667C14.2321 27.4702 14.2904 27.2772 14.3996 27.1133L15.5859 25.333H8.57225C7.07234 25.333 5.63345 25.9299 4.57174 26.9922C3.50992 28.0546 2.91238 29.496 2.91238 31V51ZM29.5641 4.0166C29.5641 6.59244 28.8031 9.11121 27.3709 11.2559L16.2382 27.9678V56.8857L28.0096 59.8301H28.0105C28.4595 59.9431 28.9202 60 29.3809 60H42.7646C43.8154 60.0004 44.846 59.7082 45.7405 59.1553C46.6352 58.6022 47.3583 57.8094 47.8289 56.8672L59.4895 33.5342L59.6404 33.2061C59.968 32.43 60.1193 31.589 60.0812 30.7441C60.0376 29.7787 59.7483 28.8402 59.2407 28.0186C58.7331 27.1971 58.024 26.5196 57.1817 26.0498C56.3393 25.58 55.3911 25.333 54.4272 25.333H31.8925C31.3387 25.3328 30.8894 24.8852 30.8894 24.333C30.8896 23.781 31.3388 23.3332 31.8925 23.333H37.5534V7.66699C37.5534 6.16294 36.9558 4.72063 35.894 3.6582C34.8323 2.59593 33.3924 2 31.8925 2H31.5761C30.4679 2.00018 29.5641 2.89896 29.5641 4.0166Z" fill="url(#paint0_linear_339_240)"/>
<defs>
<linearGradient id="paint0_linear_339_240" x1="55.5274" y1="-50.3019" x2="-17.4897" y2="-35.6048" gradientUnits="userSpaceOnUse">
<stop stop-color="#00F5FF"/>
<stop offset="1" stop-color="#0086FF"/>
</linearGradient>
</defs>
</svg>
